HIERARCHY
ROOT root
{
	OFFSET 0.000000 0.000000 0.000000
	CHANNELS 6 Xposition Yposition Zposition Zrotation Yrotation Xrotation
	JOINT lhip
	{
		OFFSET 0.058581 -0.082280 -0.017664
		CHANNELS 3 Zrotation Yrotation Xrotation
		JOINT lknee
		{
			OFFSET 0.043451 -0.386469 0.008037
			CHANNELS 3 Zrotation Yrotation Xrotation
			JOINT lankle
			{
				OFFSET -0.014790 -0.426874 -0.037428
				CHANNELS 3 Zrotation Yrotation Xrotation
				JOINT ltoe
				{
					OFFSET 0.041054 -0.060286 0.122042
					CHANNELS 3 Zrotation Yrotation Xrotation
					End Site
					{
						OFFSET 0.000000 0.000000 0.000000
					}
				}
			}
		}
	}
	JOINT rhip
	{
		OFFSET -0.060310 -0.090513 -0.013543
		CHANNELS 3 Zrotation Yrotation Xrotation
		JOINT rknee
		{
			OFFSET -0.043257 -0.383688 -0.004843
			CHANNELS 3 Zrotation Yrotation Xrotation
			JOINT rankle
			{
				OFFSET 0.019056 -0.420046 -0.034562
				CHANNELS 3 Zrotation Yrotation Xrotation
				JOINT rtoe
				{
					OFFSET -0.034840 -0.062106 0.130323
					CHANNELS 3 Zrotation Yrotation Xrotation
					End Site
					{
						OFFSET 0.000000 0.000000 0.000000
					}
				}
			}
		}
	}
	JOINT lowerback
	{
		OFFSET 0.004439 0.124404 -0.038385
		CHANNELS 3 Zrotation Yrotation Xrotation
		JOINT upperback
		{
			OFFSET 0.004488 0.137956 0.026820
			CHANNELS 3 Zrotation Yrotation Xrotation
			JOINT chest
			{
				OFFSET -0.002265 0.056032 0.002855
				CHANNELS 3 Zrotation Yrotation Xrotation
				JOINT lowerneck
				{
					OFFSET -0.013390 0.211636 -0.033468
					CHANNELS 3 Zrotation Yrotation Xrotation
					JOINT upperneck
					{
						OFFSET 0.010113 0.088937 0.050410
						CHANNELS 3 Zrotation Yrotation Xrotation
						End Site
						{
							OFFSET 0.000000 0.000000 0.000000
						}
					}
				}
				JOINT lclavicle
				{
					OFFSET 0.071702 0.114000 -0.018898
					CHANNELS 3 Zrotation Yrotation Xrotation
					JOINT lshoulder
					{
						OFFSET 0.122921 0.045205 -0.019046
						CHANNELS 3 Zrotation Yrotation Xrotation
						JOINT lelbow
						{
							OFFSET 0.255332 -0.015649 -0.022946
							CHANNELS 3 Zrotation Yrotation Xrotation
							JOINT lwrist
							{
								OFFSET 0.265709 0.012698 -0.007375
								CHANNELS 3 Zrotation Yrotation Xrotation
								End Site
								{
									OFFSET 0.000000 0.000000 0.000000
								}
							}
						}
					}
				}
				JOINT rclavicle
				{
					OFFSET -0.082954 0.112472 -0.023707
					CHANNELS 3 Zrotation Yrotation Xrotation
					JOINT rshoulder
					{
						OFFSET -0.113228 0.046853 -0.008472
						CHANNELS 3 Zrotation Yrotation Xrotation
						JOINT relbow
						{
							OFFSET -0.260127 -0.014369 -0.031269
							CHANNELS 3 Zrotation Yrotation Xrotation
							JOINT rwrist
							{
								OFFSET -0.269108 0.006794 -0.006027
								CHANNELS 3 Zrotation Yrotation Xrotation
								End Site
								{
									OFFSET 0.000000 0.000000 0.000000
								}
							}
						}
					}
				}
			}
		}
	}
}
MOTION
Frames: 7
Frame Time: 0.033333
2.341557 0.642369 0.988348 -70.717480 -1.083456 83.171921 -3.463592 -4.786061 3.764410 -1.381784 -18.795398 4.025353 2.116855 6.273067 -11.578737 0.000000 -0.000000 0.000000 -1.970128 -6.058615 3.553091 -3.101433 -6.517129 11.707454 0.236285 -13.816219 -16.698744 0.000000 -0.000000 0.000000 -0.993847 5.300695 9.346772 -2.615453 -0.400680 5.646545 -0.349047 1.199350 -4.360902 1.383738 21.758385 -2.806056 3.946328 22.818503 1.396616 -28.268062 -8.027265 1.250279 -49.980945 -5.604291 10.273889 4.621395 -19.668748 2.781710 -5.481247 -4.543095 1.201757 24.731449 8.627884 6.939982 59.519645 2.270661 16.664382 -4.207008 24.536636 7.012641 3.602523 4.185485 4.178602 
2.341408 0.642327 0.988399 -70.745193 -1.125885 83.184815 -3.497149 -4.763000 3.782426 -1.348729 -18.730936 3.932344 1.944577 6.200265 -11.485316 0.000000 -0.000000 0.000000 -1.961453 -5.884067 3.582707 -3.181092 -6.580172 11.632154 0.262726 -13.851721 -16.666050 0.000000 -0.000000 0.000000 -1.007380 5.449781 9.266062 -2.679516 -0.433411 5.606295 -0.301597 1.096819 -4.238415 1.170223 21.696183 -2.380626 3.688537 22.447114 0.531139 -28.054520 -8.040576 1.178760 -50.189075 -5.546980 10.311922 4.693907 -19.701687 2.456643 -5.726824 -4.414049 1.352638 24.736117 8.736370 6.854840 59.575899 2.131063 16.600029 -4.312365 24.571845 7.024917 3.901232 4.109536 4.325580 
2.341426 0.642340 0.988446 -70.750067 -1.109093 83.271560 -3.444834 -4.781971 3.572365 -1.496140 -18.733892 4.205538 2.008664 6.205525 -11.572267 0.000000 -0.000000 0.000000 -1.946686 -5.915620 3.481604 -3.170942 -6.559596 11.646063 0.281102 -13.858742 -16.606290 0.000000 -0.000000 0.000000 -1.020834 5.455466 9.188924 -2.638766 -0.475948 5.580725 -0.298251 1.132273 -4.286875 1.172771 21.722461 -2.303941 3.648502 22.464090 0.453142 -27.888668 -8.012044 1.087769 -50.347622 -5.515438 10.427342 4.626676 -19.609569 2.323849 -5.507822 -4.182447 1.300162 24.689474 8.726349 6.871240 59.593887 2.141805 16.624483 -4.242170 24.523071 6.995864 3.873339 4.017473 4.356924 
2.341452 0.642272 0.988570 -70.803012 -1.083097 83.317695 -3.411569 -4.756435 3.519397 -1.448578 -18.642457 4.146293 1.936702 6.129375 -11.530814 0.000000 -0.000000 0.000000 -1.940423 -5.901151 3.416279 -3.137140 -6.582035 11.661872 0.257355 -13.807061 -16.662082 0.000000 -0.000000 0.000000 -0.993192 5.479037 9.096808 -2.629858 -0.460550 5.625559 -0.280608 1.119285 -4.319028 1.183936 21.768571 -2.234704 3.629064 22.402258 0.358909 -27.771775 -7.971331 1.030191 -50.494899 -5.524377 10.410713 4.671009 -19.455864 2.110331 -5.460415 -4.197075 1.386572 24.643685 8.703534 6.869325 59.598840 2.224093 16.577574 -4.159368 24.410563 6.991690 3.782354 4.083309 4.546003 
2.341410 0.642315 0.988756 -70.831402 -1.048008 83.301879 -3.422105 -4.779705 3.615087 -1.335631 -18.681084 4.038333 2.079734 6.218532 -11.502165 0.000000 -0.000000 0.000000 -1.900387 -5.903619 3.438753 -3.134053 -6.521972 11.637439 0.300773 -13.781256 -16.594253 0.000000 -0.000000 0.000000 -0.973684 5.522627 9.144432 -2.614058 -0.487337 5.589621 -0.266206 1.111145 -4.371866 1.160870 21.690018 -2.157296 3.672842 22.451187 0.295242 -27.926114 -8.039110 1.065991 -50.283430 -5.432544 10.389424 4.570979 -19.629572 2.098200 -5.682482 -4.193438 1.227843 24.718141 8.744488 6.916484 59.492704 2.149942 16.562696 -4.163897 24.488525 7.019427 3.900735 4.126696 4.537295 
2.341276 0.642286 0.989030 -70.884449 -1.056297 83.293043 -3.393391 -4.773830 3.642453 -1.359972 -18.582108 4.020939 2.032706 6.200896 -11.572852 0.000000 -0.000000 0.000000 -1.918394 -5.857138 3.464878 -3.119649 -6.534153 11.639964 0.297980 -13.764473 -16.635142 0.000000 -0.000000 0.000000 -1.019383 5.562034 9.109979 -2.600284 -0.467871 5.602529 -0.226642 1.095808 -4.383307 1.156543 21.747775 -2.134333 3.639099 22.440152 0.321092 -27.895691 -8.002703 1.045810 -50.320229 -5.346926 10.434813 4.654817 -19.637468 2.071129 -5.588147 -4.204511 1.352767 24.836596 8.782540 6.925228 59.356350 2.091138 16.583284 -4.136528 24.474435 7.073604 3.852250 4.224854 4.610324 
2.341090 0.642352 0.989233 -70.945223 -1.057187 83.309164 -3.393457 -4.744287 3.625939 -1.405960 -18.675667 4.101167 2.008642 6.309856 -11.687073 0.000000 -0.000000 0.000000 -1.884753 -5.757295 3.413888 -3.135251 -6.501966 11.715503 0.326236 -13.811485 -16.651986 0.000000 -0.000000 0.000000 -1.085223 5.642057 9.012164 -2.563174 -0.433774 5.637479 -0.177778 1.062189 -4.383669 1.183336 21.751793 -1.997830 3.649956 22.413532 0.270814 -27.844076 -8.020273 1.056899 -50.233936 -5.293774 10.508380 4.410722 -19.672573 2.177439 -5.424226 -4.267974 1.461352 24.788904 8.771019 6.952817 59.335221 2.082529 16.581919 -4.077689 24.529636 7.182264 3.717017 4.284351 4.820378 
